<?xml version="1.0" encoding="UTF-8" ?>
<!DOCTYPE svg PUBLIC "-//W3C//DTD SVG 1.1//EN" "http://www.w3.org/Graphics/SVG/1.1/DTD/svg11.dtd">
<!--
Logo of Jilin University
Vectorized by TechCiel
Copyright Jilin University
-->
<svg fill="currentColor" style="color: #0E419C" width="617pt" height="617pt" viewBox="0 0 617 617" version="1.1" xmlns="http://www.w3.org/2000/svg">
<circle fill="none" stroke="currentColor" stroke-width="20.5" cx="308.5" cy="308.5" r="298.25" />
<path d="M 101.29 361.34 C 107.28 359.49 113.85 358.40 120.00 360.07 C 125.55 361.70 128.67 368.66 125.76 373.76 C 122.17 379.64 115.31 382.40 107.81 384.32 L 104.92 377.96 C 121.35 373.49 118.31 363.27 101.35 369.41 C 87.29 373.76 73.25 378.14 59.16 382.37 C 58.59 379.83 57.85 377.33 56.97 374.89 C 71.76 370.45 86.50 365.81 101.29 361.34 Z" />
<path d="M 51.86 349.14 L 118.26 337.50 L 119.69 345.08 L 52.95 356.72 L 51.86 349.14 Z" />
<path d="M 104.42 301.99 L 115.75 301.56 L 116.78 328.49 L 49.79 330.85 L 49.55 323.12 L 105.14 320.91 L 104.42 301.99 Z" />
<path d="M 49.99 280.52 L 116.91 286.36 L 116.32 293.90 L 49.46 288.33 L 49.99 280.52 Z" />
<path d="M 58.04 238.76 L 59.50 231.90 L 125.22 248.09 L 123.50 255.44 L 77.40 260.05 L 119.74 270.49 L 118.22 277.19 L 52.19 261.40 L 54.17 254.19 L 101.14 249.62 L 58.04 238.76 Z" />
<path d="M 89.78 167.43 L 93.92 160.92 L 134.86 186.16 C 140.58 190.14 147.06 195.37 147.16 202.99 C 146.50 209.22 141.71 215.76 135.00 216.01 C 126.88 216.53 119.80 211.83 113.03 208.02 L 77.62 186.55 L 81.70 180.14 L 121.87 204.18 C 125.73 206.31 131.69 208.06 134.69 203.68 C 137.97 199.64 134.00 194.79 130.50 192.54 L 89.78 167.43 Z" />
<path d="M 124.68 124.35 L 129.61 119.07 L 178.99 165.20 L 173.57 171.02 L 130.30 151.25 L 163.28 182.05 L 158.16 187.55 L 108.77 141.42 L 114.52 135.25 L 158.00 155.13 L 124.85 124.17 Z" />
<path d="M 146.58 104.87 L 152.70 100.15 L 194.13 153.85 L 188.01 158.57 L 146.58 104.87 Z" />
<path d="M 190.56 76.80 L 197.49 73.02 L 218.34 138.51 L 211.27 142.36 L 166.62 89.85 L 173.93 85.86 L 206.00 124.24 L 190.56 76.80 Z" />
<path d="M 216.22 64.82 L 242.81 56.85 L 246.44 67.58 L 226.95 73.77 L 231.46 87.67 L 249.46 81.94 L 253.12 93.08 L 235.03 99.10 L 240.54 116.17 L 260.39 109.74 L 264.13 120.82 L 236.79 129.47 L 216.22 64.82 Z" />
<path d="M 266.45 51.35 C 273.93 51.03 281.38 49.45 288.88 50.02 C 294.50 50.89 296.88 57.03 298.21 61.85 C 300.11 70.52 300.50 81.96 291.84 87.18 C 298.89 95.44 302.42 105.94 305.94 115.97 L 297.53 116.05 L 285.71 92.35 C 284.24 89.48 280.79 90.05 278.13 89.71 L 280.88 117.38 L 273.06 118.28 L 266.45 51.35 M 275.49 62.12 L 277.19 78.92 C 281.71 78.35 288.47 79.70 290.88 74.79 C 291.69 70.33 292.11 63.58 287.13 61.41 C 283.26 61.07 279.37 61.99 275.49 62.12 Z" />
<path d="M 323.87 52.87 C 328.60 46.78 338.96 47.48 343.29 53.68 C 346.64 58.62 346.87 64.85 346.93 70.62 L 339.35 70.80 C 338.54 66.81 338.51 60.39 333.08 60.13 C 326.48 59.07 323.80 68.80 328.71 72.30 C 333.86 76.38 341.20 78.69 343.55 85.45 C 346.50 94.51 345.24 105.10 340.04 113.11 C 335.47 120.44 323.41 120.53 318.53 113.51 C 314.69 107.70 313.75 100.28 315.08 93.52 L 321.66 92.99 C 322.36 97.76 322.04 104.55 327.49 106.61 C 336.27 109.33 341.00 94.52 333.56 90.51 C 328.81 87.42 322.98 84.94 320.60 79.39 C 316.96 70.87 318.28 60.26 323.87 52.87 Z" />
<path d="M 352.78 121.27 L 369.55 55.86 L 376.96 57.92 L 360.18 123.22 L 352.78 121.27 Z" />
<path d="M 390.44 74.01 L 394.93 63.27 L 422.32 74.73 L 417.83 85.47 L 400.28 78.13 L 378.58 129.98 L 385.63 132.93 L 407.33 81.08 L 390.44 74.01 Z" />
<path d="M 426.79 122.82 L 437.42 82.46 L 445.00 87.73 L 437.76 114.20 L 459.18 97.72 L 466.75 102.41 L 433.99 127.00 L 417.65 150.93 L 411.32 146.35 L 426.79 122.82 Z" />
<circle cx="472.28" cy="155.72" r="10.5" />
<path d="M 502.38 191.29 C 511.73 186.81 522.38 182.56 532.86 185.13 C 539.58 186.43 544.26 194.28 541.69 200.73 C 539.75 206.60 534.74 210.57 530.12 214.33 L 524.56 209.07 C 527.20 205.66 532.21 202.26 530.78 197.35 C 528.86 192.07 522.00 192.24 517.55 193.66 C 508.61 196.46 499.99 200.79 492.76 206.77 C 489.31 209.56 486.38 215.23 490.05 218.98 C 494.65 222.53 500.73 219.97 504.76 219.10 L 504.88 227.47 C 498.71 229.12 492.20 230.57 485.85 229.12 C 479.34 227.23 475.31 219.45 478.03 213.11 C 482.32 202.54 492.63 196.21 502.38 191.29 Z" />
<path d="M 489.62 245.16 L 555.26 228.08 L 557.17 235.44 L 531.55 242.28 L 535.44 257.02 L 561.41 250.88 L 563.29 257.99 L 497.51, 274.35 L 495.63 267.24 L 524.11 259.81 L 520.23 245.09 L 491.61 252.17 L 489.62 245.16 Z" />
<path d="M 498.86 285.51 L 565.92 279.23 L 566.51 286.84 L 499.45 293.12 L 498.86 285.51 Z" />
<path d="M 500.14 311.01 L 500.61 304.13 L 568.28 308.82 L 567.81 315.59 L 521.68 328.88 L 566.68 332.00 L 566.23 338.42 L 498.56 333.74 L 499.02 327.13 L 544.35 314.07 L 500.14 311.01 Z" />
<path d="M 495.38 349.23 L 497.47 341.37 L 559.12 373.89 L 556.91 382.18 L 487.71 378.09 L 489.82 370.15 L 505.64 371.10 L 509.42 357.06 L 496.16 349.73 M 520.02 362.11 L 517.47 371.86 L 541.69 373.44 L 520.02 362.11 Z" />
<path d="M 171.00 460.39 C 175.66 459.33 178.36 454.67 181.79 451.66 C 183.86 453.41 185.93 455.16 188.04 456.87 C 192.59 454.96 196.54 458.12 200.43 460.04 C 198.44 463.07 196.38 466.07 194.53 469.19 C 199.10 470.55 203.48 472.51 207.50 475.09 C 201.53 481.42 191.66 480.31 183.69 480.17 C 183.46 486.22 189.01 489.94 192.40 494.20 C 181.05 502.36 166.85 491.88 154.41 495.42 C 155.64 486.25 140.88 491.48 141.47 482.97 C 141.78 479.63 139.85 474.59 144.22 473.26 C 149.03 474.42 152.91 478.01 157.79 479.05 C 159.87 476.84 162.17 473.69 161.49 470.57 C 158.22 465.55 153.43 460.59 154.91 454.01 C 161.77 450.60 165.44 458.61 171.00 460.39 Z" />
<path d="M 130.25 499.19 C 135.25 498.17 138.43 493.53 143.42 492.53 C 143.44 499.43 150.88 498.09 155.56 499.38 C 161.28 500.32 165.14 505.06 169.50 508.44 C 165.71 514.16 158.62 514.44 152.71 516.43 C 157.07 518.73 161.49 520.95 165.59 523.69 C 161.40 525.25 159.31 528.98 157.04 532.36 C 149.44 529.35 142.20 524.95 136.63 518.92 C 135.04 512.19 144.07 510.49 148.95 510.78 C 152.42 511.41 159.63 511.57 159.90 507.27 C 153.86 503.32 146.19 503.57 139.31 504.33 C 134.12 506.88 134.95 514.89 129.58 517.73 C 126.96 520.06 124.55 516.90 122.74 515.21 C 124.28 511.29 124.37 507.12 124.20 502.99 C 124.28 499.95 128.17 500.12 130.25 499.19 Z" />
<path d="M 247.35 521.42 C 250.18 511.41 253.56 500.73 261.95 493.92 C 270.07 499.89 270.34 513.14 262.17 519.15 C 258.54 522.58 251.19 522.32 250.28 528.14 C 249.37 535.01 250.12 541.99 249.32 548.89 C 258.61 546.27 265.36 539.20 270.87 531.63 C 268.65 533.28 266.62 535.16 264.66 537.11 C 262.86 535.66 261.03 534.23 259.23 532.80 C 262.76 529.44 267.61 528.24 271.53 525.54 C 274.73 517.59 272.74 502.75 284.44 502.11 C 283.12 508.99 289.40 513.09 291.05 519.04 C 289.85 524.05 283.89 525.30 280.63 528.67 C 278.31 533.56 278.49 539.16 278.57 544.46 C 285.91 544.62 288.77 552.26 293.47 556.60 C 296.93 559.94 297.07 565.23 293.27 568.37 C 288.05 565.49 282.98 562.15 279.97 556.84 C 279.21 556.90 277.71 557.04 276.96 557.10 C 276.32 563.91 280.20 570.31 278.60 577.08 C 269.65 577.45 268.61 566.36 266.57 559.91 C 262.25 560.95 258.60 563.68 254.34 564.91 C 253.95 560.34 253.13 555.82 251.70 551.46 C 250.95 551.93 249.45 552.86 248.70 553.33 C 248.31 560.83 249.49 568.30 248.87 575.79 C 241.14 572.85 243.80 563.65 243.24 557.31 C 239.22 559.33 236.18 564.34 231.30 563.89 C 226.97 561.09 226.13 553.73 230.90 550.88 C 236.49 543.13 242.79 535.40 246.32 526.49 C 242.54 528.22 239.20 530.69 235.64 532.80 C 231.96 533.84 228.77 530.17 227.64 527.01 C 234.09 524.85 240.93 523.83 247.35 521.42 M 252.45 520.12 C 258.87 516.50 268.28 507.34 261.25 500.14 C 256.09 505.54 253.26 512.75 252.45 520.12 M 240.60 553.14 C 243.45 551.37 245.19 548.53 245.54 545.20 C 243.10 547.28 241.43 550.05 240.60 553.14 Z" />
<path d="M 360.23 490.00 C 360.12 486.56 362.16 483.52 364.47 481.17 C 367.13 480.81 370.63 482.08 370.63 485.23 C 371.45 498.89 371.70 512.58 374.54 526.03 C 378.17 524.05 381.64 521.82 385.06 519.50 C 384.25 517.97 383.44 516.43 382.68 514.89 C 388.73 515.78 396.90 513.19 400.77 519.35 C 393.20 522.04 385.68 524.97 378.50 528.57 C 371.43 531.49 372.90 541.04 375.14 546.75 C 379.84 549.52 385.80 549.93 390.94 551.99 C 395.38 553.88 400.31 551.41 404.73 553.30 C 408.77 554.85 412.90 557.72 413.46 562.36 C 409.43 563.28 406.15 565.68 405.05 569.81 C 400.32 568.76 394.97 571.49 390.82 568.15 C 385.03 563.37 380.54 557.26 375.12 552.08 C 375.52 558.54 376.84 567.70 370.71 571.83 C 360.65 572.35 352.08 565.43 343.43 561.12 C 345.17 556.83 349.45 555.24 353.11 553.07 C 356.07 549.51 358.78 544.26 357.15 539.60 C 354.35 540.53 351.79 542.01 349.17 543.32 C 348.18 540.40 347.26 537.45 346.48 534.47 C 351.13 532.52 359.43 532.53 359.74 525.92 C 359.32 513.94 360.17 501.98 360.23 490.00 Z" />
<path d="M 443.62 446.76 C 446.93 436.23 461.91 432.79 470.52 438.55 C 469.09 441.12 467.56 443.65 466.25 446.29 C 459.42 446.12 462.58 453.62 459.22 457.23 C 454.37 463.73 451.46 472.92 454.81 480.70 C 457.88 475.00 459.62 468.60 463.23 463.20 C 465.22 460.20 470.03 459.80 472.17 462.83 C 475.41 469.10 478.57 475.74 478.28 482.99 C 477.73 488.72 486.75 487.30 487.71 482.78 C 490.24 475.90 495.85 469.76 503.72 469.96 C 501.50 472.69 501.07 476.14 500.38 479.45 C 497.95 482.81 494.64 485.39 491.76 488.34 C 495.41 493.58 504.03 498.31 500.67 505.73 C 497.44 510.55 493.87 515.35 489.73 519.41 C 485.08 519.17 480.50 519.94 475.94 520.75 C 477.91 512.41 487.73 509.41 490.56 501.57 C 491.55 499.19 489.60 496.94 488.92 494.75 C 483.36 502.79 474.95 509.10 472.52 518.99 C 469.86 519.06 467.19 519.06 464.53 519.09 C 467.31 508.31 477.84 501.94 482.61 492.10 C 480.20 492.27 477.85 492.73 475.49 493.19 C 473.89 484.94 473.36 476.39 470.59 468.43 C 469.58 464.96 464.39 464.84 463.51 468.46 C 461.14 475.09 460.83 482.29 458.97 489.08 C 457.39 493.63 463.53 496.19 462.32 500.81 C 457.44 501.37 451.16 502.49 447.34 498.67 C 445.65 490.84 444.62 482.77 444.36 474.74 C 441.35 476.32 438.18 477.55 435.04 478.81 C 428.11 476.15 422.89 470.75 421.99 463.19 C 425.34 458.21 429.75 464.43 433.84 464.10 C 435.39 461.70 434.10 458.86 434.25 456.26 C 437.44 453.15 441.91 451.17 443.62 446.76 M 436.90 458.96 C 436.48 465.05 439.36 470.75 446.01 471.14 C 446.44 467.14 446.60 463.12 447.06 459.12 C 443.68 458.96 440.29 458.78 436.90 458.96 Z" />
<circle fill="none" stroke="currentColor" stroke-width="17.8" cx="308.5" cy="308.5" r="164.5" />
<path d="M 255.00 168.31 V 205.96 L 263.91 207.42 V 208.42 H 236.10 V 207.42 L 244.55 205.51 V 176.47 H 236.42 L 255.00 168.31 Z" />
<path d="M 276.66 172.58 C 282.99 166.89 294.16 167.83 298.94 175.06 C 305.76 185.25 302.28 201.49 291.31 207.32 C 285.37 209.62 275.52 209.30 273.94 202.05 C 272.43 196.56 280.96 194.86 282.86 199.22 C 284.42 201.87 280.67 203.16 280.33 204.85 C 281.55 206.92 285.00 207.54 287.51 205.56 C 292.11 202.26 291.98 195.96 292.31 190.88 C 287.04 193.22 280.01 193.89 275.79 189.19 C 270.91 184.87 271.67 176.49 276.66 172.58 M 285.68 171.62 C 280.38 174.64 281.55 182.28 282.62 187.31 C 284.09 192.63 292.49 190.19 292.38 185.06 C 293.00 180.33 293.12 169.48 285.68 171.62 Z" />
<path d="M 328.45 169.05 H 335.57 V 195.56 H 342.11 V 198.03 H 335.53 V 206.00 L 342.01 207.61 V 208.61 H 319.15 V 207.61 L 325.42 206.00 V 197.97 H 309.07 L 328.45 169.05 M 313.27 195.40 H 325.42 V 178.38 L 313.27 195.40 Z" />
<path d="M 347.67 182.53 C 349.13 173.00 360.11 166.47 369.18 169.79 C 372.66 170.56 375.63 173.70 374.20 177.43 C 373.22 180.69 367.80 181.53 365.25 178.57 C 363.66 175.62 367.28 174.15 366.86 172.30 C 365.98 170.97 362.07 169.94 359.64 172.66 C 356.45 176.46 357.02 181.81 356.46 186.43 C 364.03 182.23 376.46 185.17 377.08 195.00 C 378.26 206.39 363.30 211.65 354.79 206.25 C 346.58 201.60 346.26 190.76 347.67 182.53 M 360.37 187.25 C 355.42 190.43 357.09 197.35 357.75 202.17 C 358.17 206.25 364.40 208.08 366.15 204.15 C 368.00 199.48 368.24 194.19 366.62 189.46 C 365.79 186.87 362.64 185.77 360.37 187.25 Z" />
<path d="M 212.70 216.16 H 405.16 V 272.20 H 393.11 V 229.07 H 313.35 V 306.23 H 300.87 V 229.11 H 223.85 V 304.25 H 212.35 V 216.16 Z"/>
<path d="M 393.15 305.12 H 405.25 V 329.04 H 393.13 V 305.12 Z" />
<path d="M 300.93 373.04 H 313.34 V 404.13 H 300.87 V 373.04 Z" />
<path d="M 212.43 339.05 H 223.35 C 224.44 368.87 233.11 401.24 257.10 420.90 C 274.19 435.10 297.57 439.56 319.20 436.21 C 336.16 434.09 352.73 427.05 365.08 415.07 C 381.50 399.28 390.61 377.02 393.17 354.63 H 405.43 C 403.65 381.30 391.52 407.62 371.55 425.56 C 353.46 441.57 328.82 448.42 305.00 448.03 C 277.50 449.04 249.89 435.46 234.30 412.71 C 219.39 391.27 212.85 364.69 212.43 338.83 Z" />
<path d="M 346.29 284.31 C 352.27 279.50 363.50 285.19 360.09 293.03 C 342.11 312.37 323.43 331.08 305.29 350.29 C 295.85 361.42 278.59 361.98 266.17 355.93 C 238.49 340.82 211.04 325.09 185.49 306.54 C 183.20 305.13 181.97 302.74 181.41 300.19 C 189.63 305.62 199.79 306.25 209.16 303.87 C 218.36 317.48 232.88 326.30 248.00 331.97 C 257.74 335.45 269.08 336.61 278.43 331.36 C 303.13 318.95 324.56 301.14 346.29 284.31 Z" />
<path d="M 403.50 276.76 C 412.87 277.04 423.14 273.44 431.87 278.07 C 436.51 279.94 435.19 288.16 430.00 287.77 C 409.10 288.91 390.94 302.70 379.66 319.64 C 377.70 322.92 375.75 327.32 378.10 330.91 C 379.95 334.52 384.44 334.79 388.00 334.61 C 400.44 334.00 413.58 333.09 424.47 326.44 C 430.34 323.10 432.80 315.02 440.08 314.01 C 444.84 313.16 448.97 319.00 446.09 323.07 C 441.75 329.63 434.35 333.14 427.55 336.59 C 410.12 344.88 391.66 350.74 373.18 356.20 C 354.47 362.22 334.54 363.60 315.02 362.59 C 311.59 362.45 306.51 362.25 305.73 357.99 C 306.47 354.56 309.37 352.18 311.46 349.52 C 330.67 327.76 350.99 307.03 371.35 286.35 C 378.91 276.61 392.66 278.79 403.50 276.76 Z" />
</svg>
